<svg width="48" height="48" viewBox="0 0 48 48" fill="none" xmlns="http://www.w3.org/2000/svg">
<path d="M33 6.75V33.75C33.0035 34.6338 32.7423 35.4985 32.25 36.2325C31.8409 36.8531 31.2841 37.3623 30.6296 37.7144C29.975 38.0665 29.2433 38.2506 28.5 38.25H13.5C12.9089 38.2506 12.3235 38.1346 11.7772 37.9087C11.231 37.6827 10.7347 37.3513 10.3167 36.9333C9.89872 36.5153 9.56728 36.019 9.34134 35.4728C9.1154 34.9265 8.99941 34.3411 9 33.75V6.75C9 5.55653 9.47411 4.41193 10.318 3.56802C11.1619 2.72411 12.3065 2.25 13.5 2.25H28.5C29.6935 2.25 30.8381 2.72411 31.682 3.56802C32.5259 4.41193 33 5.55653 33 6.75Z" fill="#5AAAE7"/>
<path d="M18.675 32.0325C18.675 32.4273 18.5716 32.8152 18.375 33.1575L15.435 38.25H13.95L13.5 37.5L16.875 31.6575C17.0716 31.3152 17.175 30.9273 17.175 30.5325C17.1768 30.3112 17.1439 30.0911 17.0775 29.88C17.2436 29.9255 17.4025 29.9936 17.55 30.0825C17.8932 30.279 18.1781 30.5631 18.3757 30.9056C18.5734 31.2482 18.6766 31.637 18.675 32.0325Z" fill="#3D9AE2"/>
<path d="M32.25 28.5V36.2325C31.8409 36.853 31.2841 37.3623 30.6296 37.7144C29.975 38.0665 29.2433 38.2506 28.5 38.25H27.75V28.5C27.75 27.9033 27.9871 27.331 28.409 26.909C28.831 26.4871 29.4033 26.25 30 26.25C30.5967 26.25 31.169 26.4871 31.591 26.909C32.0129 27.331 32.25 27.9033 32.25 28.5Z" fill="#3D9AE2"/>
<path d="M18.615 32.5425C18.5673 32.7587 18.4863 32.9662 18.375 33.1575L18 33.8025V33.75C17.9989 33.553 18.0376 33.3579 18.1136 33.1762C18.1896 32.9945 18.3015 32.83 18.4425 32.6925C18.4964 32.6386 18.5541 32.5884 18.615 32.5425Z" fill="#D8D7DA"/>
<path d="M17.175 30.5325C17.1756 30.0367 17.0124 29.5547 16.7108 29.1612C16.4092 28.7677 15.986 28.4849 15.5072 28.3566C15.0283 28.2283 14.5204 28.2618 14.0625 28.4519C13.6046 28.6419 13.2223 28.9778 12.975 29.4075L9.3975 35.6025C9.1346 35.0204 8.99907 34.3888 9 33.75V21.765C8.75131 21.7995 8.51525 21.8958 8.31345 22.0452C8.11166 22.1946 7.95059 22.3922 7.845 22.62L4.44 30.0075C3.98435 30.9897 3.74885 32.0597 3.75 33.1425V46.5L15.75 46.4925V42.4875C15.7484 41.6709 15.5255 40.87 15.105 40.17L13.95 38.25L13.5 37.5L16.875 31.6575C17.0716 31.3152 17.175 30.9273 17.175 30.5325Z" fill="#FFC477"/>
<path d="M22.5 32.25C22.8975 32.2512 23.2783 32.4096 23.5593 32.6907C23.8404 32.9717 23.9988 33.3525 24 33.75C23.9971 34.1469 23.8381 34.5267 23.5574 34.8074C23.2767 35.0881 22.8969 35.2471 22.5 35.25H19.5C19.1025 35.2488 18.7217 35.0904 18.4407 34.8093C18.1596 34.5283 18.0012 34.1475 18 33.75C18.0029 33.3531 18.1619 32.9733 18.4426 32.6926C18.7233 32.4119 19.1031 32.2529 19.5 32.25H22.5Z" fill="#E6E7E8"/>
<path d="M39.75 37.5C39.75 36.9033 39.987 36.331 40.409 35.909C40.8309 35.4871 41.4032 35.25 42 35.25C42.5967 35.25 43.169 35.4871 43.591 35.909C44.0129 36.331 44.25 36.9033 44.25 37.5V46.5H24.0825L20.85 40.905C20.6524 40.5629 20.5485 40.1747 20.5485 39.7796C20.5486 39.3846 20.6527 38.9965 20.8503 38.6544C21.048 38.3123 21.3322 38.0283 21.6745 37.8309C22.0167 37.6335 22.4049 37.5297 22.8 37.53C23.1954 37.5284 23.5843 37.6316 23.9268 37.8293C24.2694 38.0269 24.5534 38.3118 24.75 38.655L26.25 41.25V27C26.25 26.4033 26.487 25.831 26.909 25.409C27.3309 24.9871 27.9032 24.75 28.5 24.75C29.0967 24.75 29.669 24.9871 30.091 25.409C30.5129 25.831 30.75 26.4033 30.75 27V36C30.75 35.4033 30.987 34.831 31.409 34.409C31.8309 33.9871 32.4032 33.75 33 33.75C33.5967 33.75 34.169 33.9871 34.591 34.409C35.0129 34.831 35.25 35.4033 35.25 36V36.75C35.25 36.1533 35.487 35.581 35.909 35.159C36.3309 34.7371 36.9032 34.5 37.5 34.5C38.0967 34.5 38.669 34.7371 39.091 35.159C39.5129 35.581 39.75 36.1533 39.75 36.75V37.5Z" fill="#FFC477"/>
<path d="M22.5 26.25C26.2279 26.25 29.25 23.2279 29.25 19.5C29.25 15.7721 26.2279 12.75 22.5 12.75C18.7721 12.75 15.75 15.7721 15.75 19.5C15.75 23.2279 18.7721 26.25 22.5 26.25Z" fill="#3D9AE2"/>
<path d="M21 24.75C24.7279 24.75 27.75 21.7279 27.75 18C27.75 14.2721 24.7279 11.25 21 11.25C17.2721 11.25 14.25 14.2721 14.25 18C14.25 21.7279 17.2721 24.75 21 24.75Z" fill="#FFD422"/>
<path d="M15 4.5H16.5V6H15V4.5Z" fill="#3D9AE2"/>
<path d="M18 4.5H24V6H18V4.5Z" fill="#3D9AE2"/>
<path d="M21.75 17.25H20.25C20.0511 17.25 19.8603 17.171 19.7197 17.0303C19.579 16.8897 19.5 16.6989 19.5 16.5C19.5 16.3011 19.579 16.1103 19.7197 15.9697C19.8603 15.829 20.0511 15.75 20.25 15.75H21.75C21.9489 15.75 22.1397 15.829 22.2803 15.9697C22.421 16.1103 22.5 16.3011 22.5 16.5H24C24 15.9033 23.7629 15.331 23.341 14.909C22.919 14.4871 22.3467 14.25 21.75 14.25V13.5H20.25V14.25C19.6533 14.25 19.081 14.4871 18.659 14.909C18.2371 15.331 18 15.9033 18 16.5C18 17.0967 18.2371 17.669 18.659 18.091C19.081 18.5129 19.6533 18.75 20.25 18.75H21.75C21.9489 18.75 22.1397 18.829 22.2803 18.9697C22.421 19.1103 22.5 19.3011 22.5 19.5C22.5 19.6989 22.421 19.8897 22.2803 20.0303C22.1397 20.171 21.9489 20.25 21.75 20.25H20.25C20.0511 20.25 19.8603 20.171 19.7197 20.0303C19.579 19.8897 19.5 19.6989 19.5 19.5H18C18 20.0967 18.2371 20.669 18.659 21.091C19.081 21.5129 19.6533 21.75 20.25 21.75V22.5H21.75V21.75C22.3467 21.75 22.919 21.5129 23.341 21.091C23.7629 20.669 24 20.0967 24 19.5C24 18.9033 23.7629 18.331 23.341 17.909C22.919 17.4871 22.3467 17.25 21.75 17.25Z" fill="#FF5023"/>
<path d="M3.21973 9.96975L0.969727 12.2197L2.03023 13.2803L2.99998 12.3105V21H4.49998V12.3105L5.46973 13.2803L6.53023 12.2197L4.28023 9.96975C4.13958 9.82915 3.94885 9.75016 3.74998 9.75016C3.5511 9.75016 3.36037 9.82915 3.21973 9.96975Z" fill="#FF9811"/>
<path d="M41.0302 12.2197L38.7802 9.96975C38.6396 9.82915 38.4489 9.75016 38.25 9.75016C38.0511 9.75016 37.8604 9.82915 37.7197 9.96975L35.4697 12.2197L36.5302 13.2803L37.5 12.3105V21H39V12.3105L39.9697 13.2803L41.0302 12.2197Z" fill="#FF9811"/>
<path d="M37.5 22.5H39V24H37.5V22.5Z" fill="#FF9811"/>
<path d="M37.5 25.5H39V27H37.5V25.5Z" fill="#FF9811"/>
<path d="M3 22.5H4.5V24H3V22.5Z" fill="#FF9811"/>
<path d="M16.5 46.4925H15V42.4912C15.0001 41.8097 14.8144 41.141 14.463 40.557L12.8572 37.887C12.7881 37.7723 12.751 37.6413 12.7497 37.5074C12.7484 37.3735 12.7829 37.2418 12.8497 37.1257L16.1737 31.3687C16.2812 31.1892 16.3519 30.9901 16.3815 30.7829C16.4112 30.5758 16.3993 30.3648 16.3465 30.1623C16.2937 29.9598 16.2011 29.7699 16.0741 29.6036C15.9471 29.4373 15.7882 29.2979 15.6067 29.1937C15.2644 29.0196 14.8682 28.9834 14.5 29.0927C14.1318 29.2019 13.8195 29.4483 13.6275 29.781L9.50247 36.9255C9.45322 37.0112 9.38753 37.0863 9.30915 37.1465C9.23078 37.2067 9.14128 37.2509 9.04579 37.2764C8.95031 37.3019 8.85072 37.3083 8.75276 37.2952C8.6548 37.282 8.56039 37.2497 8.47497 37.2C8.38958 37.1507 8.31474 37.0852 8.25472 37.007C8.1947 36.9288 8.15068 36.8395 8.12519 36.7443C8.09969 36.6491 8.09322 36.5497 8.10614 36.452C8.11906 36.3543 8.15111 36.2601 8.20047 36.1747L12.3255 29.031C12.5497 28.644 12.8575 28.312 13.2263 28.059C13.5951 27.8061 14.0157 27.6386 14.4574 27.5687C14.8992 27.4989 15.3509 27.5285 15.7798 27.6553C16.2086 27.7822 16.6038 28.0031 16.9365 28.302C17.4488 28.7762 17.7827 29.412 17.8822 30.103C17.9818 30.794 17.8409 31.4982 17.4832 32.0977L14.3677 37.4932L15.75 39.7837C16.2412 40.6011 16.5004 41.5369 16.5 42.4905V46.4925Z" fill="#FFB655"/>
<path d="M31.5 36C31.5 35.5858 31.1642 35.25 30.75 35.25C30.3358 35.25 30 35.5858 30 36V39C30 39.4142 30.3358 39.75 30.75 39.75C31.1642 39.75 31.5 39.4142 31.5 39V36Z" fill="#FFB655"/>
<path d="M36 36C36 35.5858 35.6642 35.25 35.25 35.25C34.8358 35.25 34.5 35.5858 34.5 36V39C34.5 39.4142 34.8358 39.75 35.25 39.75C35.6642 39.75 36 39.4142 36 39V36Z" fill="#FFB655"/>
<path d="M40.5 36.75C40.5 36.3358 40.1642 36 39.75 36C39.3358 36 39 36.3358 39 36.75V39C39 39.4142 39.3358 39.75 39.75 39.75C40.1642 39.75 40.5 39.4142 40.5 39V36.75Z" fill="#FFB655"/>
</svg>
