<svg width="48" height="48" viewBox="0 0 48 48" fill="none" xmlns="http://www.w3.org/2000/svg">
<path d="M44.8811 25.5988L15.7955 41.6061C14.201 42.4836 12.1969 41.9024 11.3194 40.3079L2.45596 24.2029C1.5784 22.6083 2.15963 20.6043 3.75417 19.7267L32.8397 3.71945C34.4342 2.84189 36.4383 3.42312 37.3158 5.01766L46.1793 21.1227C47.0568 22.7172 46.4756 24.7212 44.8811 25.5988Z" fill="#FEBC1F"/>
<path d="M44.2458 24.4446L15.1603 40.4519C13.5657 41.3294 11.5617 40.7482 10.6842 39.1537L1.82073 23.0486C0.943177 21.4541 1.5244 19.4501 3.11894 18.5725L32.2045 2.56524C33.799 1.68768 35.8031 2.26891 36.6806 3.86345L45.544 19.9685C46.4216 21.563 45.8404 23.567 44.2458 24.4446Z" fill="#FFD475"/>
<path d="M32.2045 2.56522L3.11894 18.5725C1.5244 19.4501 0.943186 21.4541 1.82072 23.0486L10.6842 39.1537C10.6842 39.1537 2.42521 23.3589 35.145 2.45072C34.2331 2.04096 33.1478 2.04604 32.2045 2.56522Z" fill="#FEBC1F"/>
<path d="M4.42595 25.0236L5.53895 27.046C5.81951 27.5557 6.46021 27.7416 6.96998 27.461L37.6531 10.5745C38.1629 10.2939 38.3487 9.65321 38.0682 9.14343L36.9552 7.12108C36.6746 6.6113 36.0339 6.42548 35.5242 6.70604L4.84099 23.5926C4.33121 23.8731 4.14539 24.5138 4.42595 25.0236Z" fill="#1D2943"/>
<path d="M4.11749 24.4631L5.2305 26.4855C5.51105 26.9953 6.15175 27.1811 6.66153 26.9005L37.3447 10.014C37.8545 9.73343 38.0403 9.09274 37.7597 8.58296L36.6467 6.56061C36.3662 6.05083 35.7255 5.86501 35.2157 6.14557L4.53253 23.0321C4.02275 23.3127 3.83693 23.9534 4.11749 24.4631Z" fill="#4C5C75"/>
<path d="M39.6221 45.8437L6.42264 45.8437C4.60257 45.8437 3.12711 44.3683 3.12711 42.5482L3.12711 24.1653C3.12711 22.3452 4.60256 20.8698 6.42264 20.8698L39.6221 20.8698C41.4421 20.8698 42.9176 22.3452 42.9176 24.1653L42.9176 42.5482C42.9176 44.3683 41.4421 45.8437 39.6221 45.8437Z" fill="#5094FF"/>
<path d="M6.42264 44.5263L39.6221 44.5263C41.4421 44.5263 42.9176 43.0508 42.9176 41.2308L42.9176 22.8479C42.9176 21.0278 41.4422 19.5523 39.6221 19.5523L6.42264 19.5523C4.60257 19.5523 3.12711 21.0278 3.12711 22.8479L3.12711 41.2308C3.12711 43.0508 4.60256 44.5263 6.42264 44.5263Z" fill="#57B3FE"/>
<path d="M6.42266 19.5523L39.6221 19.5523C41.4422 19.5523 42.9176 21.0278 42.9176 22.8479L42.9176 41.2308C42.9176 41.2308 42.5376 23.4111 3.79128 20.8698C4.39264 20.0711 5.34586 19.5523 6.42266 19.5523Z" fill="#5094FF"/>
<path d="M40.3354 38.6115V39.123H40.3285C40.3419 39.8147 39.7649 40.3957 39.0694 40.3957L35.7257 40.3957C35.0425 40.3957 34.453 39.8254 34.4665 39.123H34.4597V38.6115H34.5414C34.7388 38.1147 35.2765 37.7744 35.8413 37.7744L38.9536 37.7744C39.5185 37.7744 40.0563 38.1147 40.2537 38.6115H40.3354Z" fill="#E3E7F0"/>
<path d="M39.0659 39.8881L35.8336 39.8881C35.1824 39.8881 34.567 39.446 34.4756 38.8012C34.3642 38.016 34.9715 37.3423 35.7352 37.3423L38.9548 37.3423C39.6454 37.3423 40.2885 37.8434 40.3306 38.5327C40.3772 39.2979 39.7722 39.8881 39.0659 39.8881Z" fill="white"/>
<path d="M30.7519 38.6115V39.123H30.7451C30.7584 39.8147 30.1815 40.3957 29.486 40.3957L26.1422 40.3957C25.459 40.3957 24.8695 39.8254 24.8831 39.123H24.8763V38.6115H24.9579C25.1553 38.1147 25.6931 37.7744 26.2579 37.7744L29.3702 37.7744C29.9351 37.7744 30.4728 38.1147 30.6702 38.6115H30.7519Z" fill="#E3E7F0"/>
<path d="M29.4825 39.8881L26.2502 39.8881C25.599 39.8881 24.9836 39.446 24.8921 38.8012C24.7808 38.016 25.3881 37.3423 26.1518 37.3423L29.3714 37.3423C30.062 37.3423 30.7051 37.8434 30.7471 38.5327C30.7938 39.2979 30.1888 39.8881 29.4825 39.8881Z" fill="white"/>
<path d="M21.1685 38.6115V39.123H21.1617C21.175 39.8147 20.598 40.3957 19.9025 40.3957H16.5588C15.8756 40.3957 15.2861 39.8254 15.2996 39.123H15.2928V38.6115H15.3745C15.5719 38.1147 16.1096 37.7744 16.6744 37.7744H19.7868C20.3517 37.7744 20.8894 38.1147 21.0868 38.6115H21.1685Z" fill="#E3E7F0"/>
<path d="M19.899 39.8881L16.6667 39.8881C16.0155 39.8882 15.4001 39.446 15.3087 38.8012C15.1974 38.016 15.8046 37.3424 16.5684 37.3423L19.7879 37.3423C20.4785 37.3423 21.1216 37.8434 21.1637 38.5327C21.2104 39.2979 20.6053 39.8881 19.899 39.8881Z" fill="white"/>
<path d="M11.585 38.6115V39.123H11.5782C11.5915 39.8147 11.0146 40.3957 10.3191 40.3957L6.97534 40.3957C6.29215 40.3957 5.70266 39.8254 5.71618 39.123H5.70937V38.6115H5.79104C5.98845 38.1147 6.52618 37.7744 7.09099 37.7744L10.2033 37.7744C10.7682 37.7744 11.306 38.1147 11.5034 38.6115H11.585Z" fill="#E3E7F0"/>
<path d="M10.3156 39.8881L7.08332 39.8881C6.43209 39.8882 5.81668 39.446 5.72526 38.8012C5.61394 38.016 6.2212 37.3424 6.98494 37.3423L10.2045 37.3423C10.8951 37.3423 11.5382 37.8434 11.5803 38.5327C11.6269 39.2979 11.0219 39.8881 10.3156 39.8881Z" fill="white"/>
<path d="M5.71205 25.3593L5.71205 28.4344C5.71205 29.2096 6.34044 29.838 7.11559 29.838L12.8737 29.8379C13.6488 29.8379 14.2772 29.2096 14.2772 28.4344L14.2772 25.3593C14.2772 24.5841 13.6488 23.9557 12.8737 23.9557L7.11559 23.9558C6.34044 23.9558 5.71205 24.5841 5.71205 25.3593Z" fill="#FEBC1F"/>
<path d="M5.71205 24.8801L5.71205 27.9552C5.71205 28.7304 6.34044 29.3588 7.11559 29.3588L12.8737 29.3588C13.6488 29.3588 14.2772 28.7304 14.2772 27.9552V24.8801C14.2772 24.1049 13.6488 23.4765 12.8737 23.4765L7.11559 23.4766C6.34044 23.4766 5.71205 24.1049 5.71205 24.8801Z" fill="#FFD475"/>
<path d="M9.84548 26.0859V23.4766H9.17881V26.0859H5.71205V26.7526H7.60872V29.3588H8.27538V26.7526H11.2771V29.3588H11.9438V26.7526H14.2772V26.0859H9.84548Z" fill="#FEBC1F"/>
<path d="M39.7268 28.3881L35.9734 28.3881C35.6607 28.3881 35.3651 28.1758 35.3212 27.8661C35.2678 27.489 35.5594 27.1655 35.9262 27.1655L39.6734 27.1655C40.0051 27.1655 40.3139 27.4062 40.3341 27.7372C40.3566 28.1047 40.066 28.3881 39.7268 28.3881Z" fill="white"/>
<path d="M39.7268 25.771L33.1371 25.7711C32.8244 25.7711 32.5288 25.5587 32.4849 25.2491C32.4315 24.872 32.7231 24.5485 33.0899 24.5485L39.6734 24.5485C40.0051 24.5485 40.3139 24.7891 40.3341 25.1202C40.3566 25.4876 40.066 25.771 39.7268 25.771Z" fill="white"/>
<path d="M38.7252 11.5203C40.2941 13.5335 41.5763 15.7214 42.5588 18.0773C40.9876 16.0657 39.71 13.8749 38.7252 11.5203Z" fill="white"/>
<path d="M9.49011 18.0759C11.7764 16.3264 14.2386 14.8628 16.8713 13.6977C14.5865 15.4494 12.1215 16.9083 9.49011 18.0759Z" fill="white"/>
<path d="M28.3707 42.8717C31.2295 42.5336 34.0937 42.5307 36.9524 42.8717C34.0937 43.2128 31.2295 43.21 28.3707 42.8717Z" fill="white"/>
</svg>
