<svg width="48" height="48" viewBox="0 0 48 48" fill="none" xmlns="http://www.w3.org/2000/svg">
<path d="M4.05895 22.7984V23.4355L3.28221 23.178L4.05895 22.7984Z" fill="#49E4A3"/>
<path d="M30.8075 33.6833V42.4322L44.3471 32.6882V24.1049L30.8075 33.6833Z" fill="#28AF6E"/>
<path d="M44.9455 23.682L32.2411 32.6695L4.06082 23.4348V18.1619L9.49586 19.9858C9.49586 19.9858 4.58755 17.4017 3.05455 16.1677V13.0649C3.05455 13.0649 11.2888 20.6195 31.4763 25.3254L43.6149 16.2287V18.0687L44.8201 18.3482L44.9455 23.682Z" fill="#28AF6E"/>
<path d="M15.2359 20.0928V27.0968L19.1496 28.3793V21.6557C17.7459 21.1353 16.4426 20.6114 15.2359 20.0928Z" fill="#FFCA6C"/>
<path d="M3.28287 23.1794V31.331L30.8075 42.4322V33.6833L3.28287 23.1794Z" fill="#39C988"/>
<path d="M15.2542 27.7479V36.1593L19.2387 37.7663V29.2685L15.2542 27.7479Z" fill="#FFCA6C"/>
<path d="M32.2409 32.6693L30.8075 33.6833L3.28334 23.1794L32.2409 32.6693Z" fill="#49E4A3"/>
<path d="M43.6152 16.2281L31.4755 25.3263C26.8807 24.2049 22.7528 22.9743 19.0916 21.6521C17.7127 21.1547 16.3993 20.6441 15.1512 20.1205C9.9367 17.9387 5.89597 15.5518 3.05524 13.0645C7.92512 9.76994 12.8255 7.29143 17.7607 5.56776C21.6971 8.78789 26.1998 11.0555 30.9433 12.7721C34.565 14.0812 38.7411 15.2289 43.6152 16.2281Z" fill="#49E4A3"/>
<path d="M30.5592 23.7945C19.8186 21.0814 11.4213 17.6524 6.00516 13.7813C6.42322 13.5212 6.44251 12.9195 6.04185 12.6332C9.56489 10.4419 13.1665 8.64388 16.7921 7.26696C17.1727 7.55234 17.6721 7.62433 18.1162 7.4538C23.4053 11.4492 30.0725 14.3282 39.206 16.5412C38.7394 16.8908 38.8906 17.6262 39.4572 17.7635L31.7226 23.56C31.3194 23.459 30.8913 23.5445 30.5592 23.7945Z" fill="#39C988"/>
<path d="M44.9455 23.682L32.2411 32.6694V27.7841L44.8201 18.3481L44.9455 23.682Z" fill="#39C988"/>
<path d="M43.6149 16.2287V18.0687L31.4763 27.0746V25.3254L43.6149 16.2287Z" fill="#39C988"/>
<path d="M44.8201 18.3482L32.2411 27.7841L31.4763 27.0746L43.6149 18.0687L44.8201 18.3482Z" fill="#49E4A3"/>
<path d="M9.49585 19.9858L4.06082 18.1619L5.24996 17.6133C5.24996 17.6133 8.20437 19.3659 9.49585 19.9858Z" fill="#39C988"/>
<path d="M44.3474 24.1045V28.2181L32.2411 32.6699L44.3474 24.1045Z" fill="#189453"/>
<path d="M27.5889 14.3252C27.5889 14.3252 30.4416 16.0834 25.7569 18.0369C21.0723 19.9904 19.061 18.5963 18.5688 17.7334C18.325 17.3061 18.3306 15.3489 21.1376 14.1351C23.9446 12.9213 26.595 13.6291 27.5889 14.3252Z" fill="#49E4A3"/>
<path d="M32.5624 20.3107C30.584 21.1357 29.7346 20.5469 29.5268 20.1825C29.4238 20.002 29.4262 19.1755 30.6116 18.6629C32.6402 17.7857 35.2052 19.2086 32.5624 20.3107Z" fill="#49E4A3"/>
<path d="M12.3655 12.8576C12.3655 12.8576 11.1609 12.1152 13.1392 11.2902C15.1175 10.4652 15.9669 11.0539 16.1747 11.4183C16.2776 11.5988 16.2752 12.4252 15.0898 12.9379C13.9045 13.4505 12.7852 13.1516 12.3655 12.8576Z" fill="#49E4A3"/>
<path d="M30.9434 12.7721L19.0917 21.6521C17.7128 21.1547 16.3993 20.6441 15.1513 20.1205L27.0509 11.2012C28.2728 11.751 29.5687 12.2747 30.9434 12.7721Z" fill="#FFDE9B"/>
<path d="M15.8542 27.2991L15.2542 27.7479C16.5022 28.2715 17.8486 28.7756 19.2275 29.2731L20.0337 28.6691L15.8542 27.2991Z" fill="#FFDE9B"/>
</svg>
