<svg width="48" height="48" viewBox="0 0 48 48" fill="none" xmlns="http://www.w3.org/2000/svg">
<path d="M24 48C36.6853 48 46.9688 37.2548 46.9688 24C46.9688 10.7452 36.6853 0 24 0C11.3147 0 1.03125 10.7452 1.03125 24C1.03125 37.2548 11.3147 48 24 48Z" fill="#E88102"/>
<path d="M24 45.4688C36.5558 45.4688 46.7344 35.2902 46.7344 22.7344C46.7344 10.1785 36.5558 0 24 0C11.4442 0 1.26562 10.1785 1.26562 22.7344C1.26562 35.2902 11.4442 45.4688 24 45.4688Z" fill="#FDD835"/>
<path opacity="0.5" d="M33.075 1.88438L3.15 31.8C2.14688 29.5031 1.51875 27.0094 1.33125 24.3938L25.6594 0.0562515C28.275 0.253127 30.7688 0.881252 33.075 1.88438Z" fill="white"/>
<path opacity="0.5" d="M43.8094 11.5781L12.8438 42.5438C10.9125 41.4563 9.16875 40.0969 7.64062 38.5125L39.7875 6.375C41.3625 7.89375 42.7219 9.64688 43.8094 11.5781Z" fill="white"/>
<path opacity="0.5" d="M38.8594 5.52187L6.79688 37.5844C6.30001 37.0031 5.82188 36.3937 5.38126 35.7656L37.0406 4.10625C37.6688 4.54687 38.2781 5.025 38.8594 5.52187Z" fill="white"/>
<path opacity="0.5" d="M46.0219 17.0625L18.3281 44.7562C17.4938 44.5406 16.6781 44.2781 15.8813 43.9781L45.2438 14.6156C45.5438 15.4125 45.8063 16.2281 46.0219 17.0625Z" fill="white"/>
<path opacity="0.5" d="M46.7344 22.7344C46.7344 22.8937 46.7344 23.0438 46.725 23.2031C46.4813 10.8656 36.4031 0.9375 24 0.9375C11.5969 0.9375 1.51875 10.8656 1.275 23.2031C1.275 23.0438 1.26562 22.8937 1.26562 22.7344C1.26562 10.1813 11.4469 0 24 0C36.5531 0 46.7344 10.1813 46.7344 22.7344Z" fill="white"/>
<path opacity="0.5" d="M42.4688 23.7188C42.4688 33.5531 34.4906 41.5312 24.6562 41.5312C19.1344 41.5312 14.1938 39.0094 10.9219 35.0625C14.175 38.5781 18.825 40.7812 24 40.7812C33.8344 40.7812 41.8125 32.8031 41.8125 22.9688C41.8125 18.6562 40.2844 14.7094 37.7344 11.625C40.6688 14.8031 42.4688 19.05 42.4688 23.7188Z" fill="white"/>
<path d="M24 40.7812C33.8376 40.7812 41.8125 32.8063 41.8125 22.9688C41.8125 13.1312 33.8376 5.15625 24 5.15625C14.1624 5.15625 6.1875 13.1312 6.1875 22.9688C6.1875 32.8063 14.1624 40.7812 24 40.7812Z" fill="#F39E09"/>
<path d="M37.5 11.3438C34.3781 8.65312 30.3188 7.03125 25.875 7.03125C16.0406 7.03125 8.0625 15.0094 8.0625 24.8438C8.0625 29.2875 9.68437 33.3469 12.375 36.4688C8.5875 33.1969 6.1875 28.3687 6.1875 22.9688C6.1875 13.1344 14.1656 5.15625 24 5.15625C29.3906 5.15625 34.2281 7.55625 37.5 11.3438Z" fill="#E88102"/>
<path d="M20.5594 25.5375C20.25 25.5375 19.95 25.4438 19.6969 25.275C19.4344 25.1063 19.2281 24.8719 19.1062 24.5906C18.975 24.3094 18.9375 24 18.9937 23.7C19.05 23.4 19.1719 23.1188 19.3781 22.8844C19.5844 22.65 19.8469 22.4813 20.1375 22.4063C20.4375 22.3313 20.7469 22.3313 21.0375 22.4156C21.3281 22.5 21.5906 22.6875 21.7875 22.9219C21.9844 23.1563 22.1062 23.4469 22.1344 23.7469H23.7187C23.6625 22.9219 23.3062 22.1438 22.6875 21.5906C22.0781 21.0375 21.2719 20.7375 20.4469 20.7563C19.6219 20.7844 18.8344 21.1313 18.2531 21.7219C17.6719 22.3125 17.3531 23.1 17.3531 23.9438C17.3531 24.7688 17.6719 25.5656 18.2531 26.1656C18.8344 26.7563 19.6219 27.1031 20.4469 27.1313C21.2719 27.1594 22.0875 26.8594 22.6875 26.2969C23.2969 25.7438 23.6719 24.9656 23.7187 24.1406H22.1344C22.0969 24.525 21.9 24.8906 21.6094 25.1438C21.3187 25.3969 20.9437 25.5375 20.5594 25.5375Z" fill="#DB6704"/>
<path d="M15.3375 20.9625V24.0656C15.3375 24.8813 14.6156 25.5375 13.8 25.5375C12.9844 25.5375 12.2531 24.8813 12.2531 24.0656V20.9625H10.6969V24.0656C10.6969 24.4688 10.7719 24.8813 10.9312 25.2563C11.0906 25.6313 11.3156 25.9688 11.6062 26.2594C11.8875 26.5406 12.2344 26.775 12.6094 26.9344C12.9844 27.0938 13.3875 27.1688 13.8 27.1688C14.3906 27.1688 14.8406 27.0094 15.3375 26.5594V27.1781C15.3375 27.9938 14.6906 28.65 13.8 28.65C12.9 28.65 12.1875 27.9938 12.1875 27.1781H10.7062C10.7156 27.9938 11.0531 28.7625 11.6344 29.3344C12.2156 29.9063 12.9844 30.225 13.8 30.225C14.6156 30.225 15.3844 29.9063 15.9656 29.3344C16.5469 28.7625 16.8844 27.9938 16.8937 27.1781V20.9625H15.3375Z" fill="#DB6704"/>
<path d="M35.7469 20.9625V24.0656C35.7469 24.8813 35.025 25.5375 34.2094 25.5375C33.3937 25.5375 32.6625 24.8813 32.6625 24.0656V20.9625H31.1156V24.0656C31.1156 24.4688 31.1906 24.8813 31.35 25.2563C31.5094 25.6313 31.7344 25.9688 32.025 26.2594C32.3062 26.5406 32.6531 26.775 33.0281 26.9344C33.4031 27.0938 33.8062 27.1688 34.2187 27.1688C34.8094 27.1688 35.2594 27.0094 35.7562 26.5594V27.1781C35.7562 27.9938 35.1094 28.65 34.2187 28.65C33.3187 28.65 32.6062 27.9938 32.6062 27.1781H31.125C31.1344 27.9938 31.4719 28.7625 32.0531 29.3344C32.6344 29.9063 33.4031 30.225 34.2187 30.225C35.0344 30.225 35.8031 29.9063 36.3844 29.3344C36.9656 28.7625 37.3031 27.9938 37.3125 27.1781V20.9625H35.7469Z" fill="#DB6704"/>
<path d="M29.0812 17.7938V21.3281C28.6031 20.9813 28.0406 20.7844 27.4594 20.7844C25.8094 20.7844 24.4594 22.1156 24.3656 23.775H25.95C26.0062 23.3719 26.1937 22.9969 26.5031 22.7438C26.8125 22.4906 27.2156 22.3406 27.6281 22.3688C28.0406 22.3969 28.4156 22.575 28.6969 22.8563C28.9781 23.1563 29.1375 23.5406 29.1375 23.9531C29.1375 24.3656 28.9781 24.75 28.6969 25.05C28.4156 25.35 28.0406 25.5281 27.6281 25.5375C27.2156 25.5656 26.8125 25.4344 26.5031 25.1625C26.1937 24.9 25.9875 24.5344 25.95 24.1313H24.3656C24.4594 25.7906 25.8094 27.1219 27.4594 27.1219C28.05 27.1125 28.6219 26.9156 29.1 26.5688L29.3156 27.0469H30.6281V17.7938H29.0812Z" fill="#DB6704"/>
<path d="M20.5594 23.9344C20.25 23.9344 19.95 23.8406 19.6969 23.6719C19.4437 23.5031 19.2281 23.2688 19.1062 22.9875C18.975 22.7063 18.9375 22.3969 18.9937 22.0969C19.05 21.7969 19.1719 21.5156 19.3781 21.2813C19.5844 21.0469 19.8469 20.8781 20.1375 20.8031C20.4375 20.7281 20.7469 20.7281 21.0375 20.8125C21.3281 20.8969 21.5906 21.0844 21.7875 21.3188C21.9844 21.5531 22.1062 21.8438 22.1344 22.1438H23.7187C23.6625 21.3188 23.3062 20.5406 22.6875 19.9875C22.0781 19.4344 21.2719 19.1344 20.4469 19.1531C19.6219 19.1813 18.8344 19.5281 18.2531 20.1188C17.6719 20.7094 17.3531 21.4969 17.3531 22.3406C17.3531 23.1656 17.6719 23.9625 18.2531 24.5625C18.8344 25.1531 19.6219 25.5 20.4469 25.5281C21.2719 25.5563 22.0875 25.2563 22.6875 24.6938C23.2969 24.1406 23.6719 23.3625 23.7187 22.5375H22.1344C22.0969 22.9219 21.9 23.2875 21.6094 23.5406C21.3187 23.7938 20.9437 23.9344 20.5594 23.9344Z" fill="#FDD835"/>
<path d="M15.3375 19.3594V22.4625C15.3375 23.2781 14.6156 23.9344 13.8 23.9344C12.9844 23.9344 12.2531 23.2781 12.2531 22.4625V19.3594H10.6969V22.4625C10.6969 22.8656 10.7719 23.2781 10.9312 23.6531C11.0906 24.0281 11.3156 24.3656 11.6062 24.6562C11.8875 24.9375 12.2344 25.1719 12.6094 25.3313C12.9844 25.4906 13.3875 25.5656 13.8 25.5656C14.3906 25.5656 14.8406 25.4063 15.3375 24.9563V25.575C15.3375 26.3906 14.6906 27.0469 13.8 27.0469C12.9 27.0469 12.1875 26.3906 12.1875 25.575H10.7062C10.7156 26.3906 11.0531 27.1594 11.6344 27.7312C12.2156 28.3031 12.9844 28.6219 13.8 28.6219C14.6156 28.6219 15.3844 28.3031 15.9656 27.7312C16.5469 27.1594 16.8844 26.3906 16.8937 25.575V19.3594H15.3375Z" fill="#FDD835"/>
<path d="M35.7469 19.3594V22.4625C35.7469 23.2781 35.025 23.9344 34.2094 23.9344C33.3937 23.9344 32.6625 23.2781 32.6625 22.4625V19.3594H31.1156V22.4625C31.1156 22.8656 31.1906 23.2781 31.35 23.6531C31.5094 24.0281 31.7344 24.3656 32.025 24.6562C32.3062 24.9375 32.6531 25.1719 33.0281 25.3313C33.4031 25.4906 33.8062 25.5656 34.2187 25.5656C34.8094 25.5656 35.2594 25.4063 35.7562 24.9563V25.575C35.7562 26.3906 35.1094 27.0469 34.2187 27.0469C33.3187 27.0469 32.6062 26.3906 32.6062 25.575H31.125C31.1344 26.3906 31.4719 27.1594 32.0531 27.7312C32.6344 28.3031 33.4031 28.6219 34.2187 28.6219C35.0344 28.6219 35.8031 28.3031 36.3844 27.7312C36.9656 27.1594 37.3031 26.3906 37.3125 25.575V19.3594H35.7469Z" fill="#FDD835"/>
<path d="M29.0812 16.1906V19.725C28.6031 19.3781 28.0406 19.1813 27.4594 19.1813C25.8094 19.1813 24.4594 20.5125 24.3656 22.1719H25.95C26.0062 21.7688 26.1937 21.3938 26.5031 21.1406C26.8125 20.8875 27.2156 20.7375 27.6281 20.7656C28.0406 20.7938 28.4156 20.9719 28.6969 21.2531C28.9781 21.5531 29.1375 21.9375 29.1375 22.35C29.1375 22.7625 28.9781 23.1469 28.6969 23.4469C28.4156 23.7469 28.0406 23.925 27.6281 23.9344C27.2156 23.9625 26.8125 23.8313 26.5031 23.5594C26.1937 23.2969 25.9875 22.9313 25.95 22.5281H24.3656C24.4594 24.1875 25.8094 25.5188 27.4594 25.5188C28.05 25.5094 28.6219 25.3125 29.1 24.9656L29.3156 25.4438H30.6281V16.1906H29.0812Z" fill="#FDD835"/>
</svg>
