<svg width="16" height="16" viewBox="0 0 16 16" fill="none" xmlns="http://www.w3.org/2000/svg">
<path d="M8.99999 5C8.99999 4.86739 9.05266 4.74021 9.14643 4.64645C9.2402 4.55268 9.36738 4.5 9.49999 4.5H15.5C15.6326 4.5 15.7598 4.55268 15.8535 4.64645C15.9473 4.74021 16 4.86739 16 5C16 5.13261 15.9473 5.25978 15.8535 5.35355C15.7598 5.44732 15.6326 5.5 15.5 5.5H9.49999C9.36738 5.5 9.2402 5.44732 9.14643 5.35355C9.05266 5.25978 8.99999 5.13261 8.99999 5ZM15.5 7.5H9.49999C9.36738 7.5 9.2402 7.55268 9.14643 7.64645C9.05266 7.74021 8.99999 7.86739 8.99999 8C8.99999 8.13261 9.05266 8.25978 9.14643 8.35355C9.2402 8.44732 9.36738 8.5 9.49999 8.5H15.5C15.6326 8.5 15.7598 8.44732 15.8535 8.35355C15.9473 8.25978 16 8.13261 16 8C16 7.86739 15.9473 7.74021 15.8535 7.64645C15.7598 7.55268 15.6326 7.5 15.5 7.5ZM15.5 10.5H11C10.8674 10.5 10.7402 10.5527 10.6464 10.6464C10.5527 10.7402 10.5 10.8674 10.5 11C10.5 11.1326 10.5527 11.2598 10.6464 11.3536C10.7402 11.4473 10.8674 11.5 11 11.5H15.5C15.6326 11.5 15.7598 11.4473 15.8535 11.3536C15.9473 11.2598 16 11.1326 16 11C16 10.8674 15.9473 10.7402 15.8535 10.6464C15.7598 10.5527 15.6326 10.5 15.5 10.5ZM9.48436 11.875C9.50071 11.9386 9.50436 12.0048 9.49511 12.0698C9.48587 12.1349 9.4639 12.1974 9.43047 12.254C9.39704 12.3105 9.3528 12.3599 9.30027 12.3993C9.24775 12.4387 9.18798 12.4674 9.12436 12.4837C9.08361 12.4947 9.04157 12.5002 8.99936 12.5C8.88847 12.5001 8.78071 12.4632 8.69302 12.3954C8.60534 12.3275 8.54271 12.2324 8.51499 12.125C8.12999 10.6287 6.61874 9.5 4.99936 9.5C3.37999 9.5 1.86874 10.6281 1.48374 12.125C1.45058 12.2535 1.36776 12.3635 1.25348 12.4309C1.1392 12.4983 1.00282 12.5175 0.87436 12.4844C0.745896 12.4512 0.635863 12.3684 0.568467 12.2541C0.501071 12.1398 0.481833 12.0035 0.514985 11.875C0.86436 10.5181 1.87999 9.41937 3.16874 8.875C2.67251 8.49279 2.30835 7.96484 2.12735 7.3652C1.94635 6.76556 1.95757 6.1243 2.15945 5.53137C2.36133 4.93843 2.74374 4.42355 3.25304 4.05894C3.76234 3.69433 4.373 3.49828 4.99936 3.49828C5.62572 3.49828 6.23638 3.69433 6.74568 4.05894C7.25498 4.42355 7.63739 4.93843 7.83927 5.53137C8.04115 6.1243 8.05237 6.76556 7.87137 7.3652C7.69037 7.96484 7.32622 8.49279 6.82999 8.875C8.11936 9.41937 9.13499 10.5181 9.48436 11.875ZM4.99999 8.5C5.39555 8.5 5.78223 8.3827 6.11113 8.16294C6.44002 7.94318 6.69637 7.63082 6.84774 7.26537C6.99912 6.89991 7.03873 6.49778 6.96156 6.10982C6.88439 5.72186 6.6939 5.36549 6.4142 5.08579C6.13449 4.80608 5.77813 4.6156 5.39017 4.53843C5.0022 4.46126 4.60007 4.50086 4.23462 4.65224C3.86917 4.80361 3.55681 5.05996 3.33705 5.38886C3.11728 5.71776 2.99999 6.10444 2.99999 6.5C2.99999 7.03043 3.2107 7.53914 3.58577 7.91421C3.96084 8.28929 4.46955 8.5 4.99999 8.5Z" fill="#1F2A37"/>
</svg>
